<svg width="100" height="100" viewBox="0 0 100 100" fill="none" xmlns="http://www.w3.org/2000/svg">
<g clip-path="url(#clip0_53_57)">
<path d="M4.00904 36.9624C0.603764 34.3446 0.93103 29.633 1.52032 27.6045C3.32156 21.404 10.8895 17.4633 15.2095 15.677C19.5296 13.8908 24.7261 13.3861 29.6061 14.5898C34.486 15.7935 43.3062 21.978 45.1917 29.2477C47.0772 36.5174 44.9012 41.6232 41.1146 47.5244C38.0854 52.2453 30.9984 58.0963 27.8336 60.4317C27.0921 60.9369 24.5861 63.1476 26.1511 66.174C27.4032 68.5951 29.687 68.752 30.6725 68.5278C33.753 68.0257 39.2482 67.5433 41.6107 67.3648C46.8445 67.0594 48.7623 72.1031 49.0671 74.6631C49.7241 79.8244 44.9412 82.4616 42.4676 83.1351C33.1778 85.1843 22.593 85.4222 18.4618 85.285C13.7853 85.3013 12.9173 84.1314 10.9335 82.9336C9.34643 81.9753 7.58362 78.3949 6.9006 76.7245C4.996 72.1515 4.5153 65.7865 7.842 59.6954C11.1687 53.6043 14.1778 50.6817 20.195 46.2966C25.0087 42.7886 27.0939 39.8235 27.5348 38.7794C28.0548 38.2909 29.8722 34.3353 26.4329 31.5628C23.6816 29.3448 20.4476 31.4533 19.1745 32.7848L15.696 36.8659C13.2322 39.635 8.26564 40.2347 4.00904 36.9624Z" fill="#E8B0B3"/>
<path d="M55.9292 33.6477C53.0388 30.4705 54.1917 25.8905 55.1294 23.9976C57.9956 18.2118 66.1398 15.6672 70.7071 14.6707C75.2744 13.6741 80.4785 14.0935 85.0698 16.1388C89.6611 18.184 97.2526 25.8267 97.8269 33.315C98.4011 40.8033 95.3589 45.4454 90.5912 50.5865C86.7771 54.6994 78.7695 59.2092 75.2425 60.95C74.4235 61.3165 71.567 63.0508 72.5739 66.3057C73.3795 68.9096 75.5999 69.4667 76.6094 69.4198C79.7303 69.4687 85.2244 69.9627 87.5813 70.2036C92.787 70.8258 93.7855 76.1286 93.6341 78.7022C93.3709 83.8985 88.1979 85.6511 85.6443 85.8779C76.1387 86.2571 65.6778 84.625 61.6355 83.7615C57.0294 82.953 56.3813 81.6485 54.6397 80.1196C53.2465 78.8966 52.1426 75.0614 51.7648 73.2967C50.6963 68.4596 51.3454 62.1095 55.6939 56.7004C60.0424 51.2913 63.5197 48.9451 70.2158 45.6896C75.5726 43.0852 78.148 40.5342 78.766 39.5842C79.364 39.1951 81.8503 35.6219 78.9538 32.2864C76.6366 29.6181 73.0815 31.1233 71.5936 32.2095L67.4501 35.6133C64.5366 37.9046 59.5421 37.6193 55.9292 33.6477Z" fill="#E8B0B3"/>
</g>
<defs>
<clipPath id="clip0_53_57">
<rect width="100" height="100" fill="white"/>
</clipPath>
</defs>
</svg>
