<svg width="92" height="97" viewBox="0 0 92 97" fill="none" xmlns="http://www.w3.org/2000/svg">
<path d="M18.8954 80.2518C14.6664 70.3147 17.0256 57.607 18.7339 52.4952C23.1225 44.4638 37.611 42.4661 44.3066 42.4712C46.8623 43.5688 62.3432 57.124 69.7643 63.7644L68.9219 90.881L18.8954 80.2518Z" fill="#FBD138"/>
<path d="M20.0888 71.2135L69.1108 82.1159L68.9215 90.8809L21.7249 80.8929C20.7039 78.847 20.2087 73.5875 20.0888 71.2135Z" fill="#FFF5C3"/>
<path d="M20.4655 56.4226L69.579 67.0512L69.2983 76.0901L22.1017 66.1021C21.0806 64.0561 20.5855 58.7966 20.4655 56.4226Z" fill="#FFF5C3"/>
<path d="M39.4617 49.6804C38.2926 50.2639 35.3224 49.9208 33.9835 49.6763C33.4738 47.5576 33.2937 36.2541 33.2673 30.8671C35.1674 29.5538 38.3199 30.3231 39.6586 30.872L39.4617 49.6804Z" fill="#FF938C"/>
<path d="M36.4729 18.5437C31.3554 24.3833 34.3346 28.8899 36.4639 30.4132C38.4361 30.3417 39.8447 26.9767 40.3025 25.3031C39.7246 24.907 38.5507 23.6218 38.4792 21.6496C38.4077 19.6773 37.1118 18.7572 36.4729 18.5437Z" fill="#FFF5C3"/>
<!-- <path d="M55.728 31.0669C52.2912 41.3512 41.1681 46.9022 30.8838 43.4654C20.5996 40.0286 15.0486 28.9056 18.4854 18.6213C21.9221 8.33704 33.0452 2.78605 43.3295 6.22281C53.6137 9.65958 59.1647 20.7827 55.728 31.0669Z" fill="#FBD138" fill-opacity="0.15"/>
<path d="M47.0573 27.8645C45.1873 33.4604 39.135 36.4808 33.5392 34.6107C27.9433 32.7407 24.9229 26.6885 26.7929 21.0926C28.6629 15.4968 34.7152 12.4764 40.3111 14.3464C45.9069 16.2164 48.9273 22.2687 47.0573 27.8645Z" fill="#FBD138" fill-opacity="0.15"/> -->
</svg>
